<?xml version="1.0" encoding="UTF-8"?>
<!DOCTYPE svg PUBLIC "-//W3C//DTD SVG 1.1//EN" "http://www.w3.org/Graphics/SVG/1.1/DTD/svg11.dtd">
<!-- Creator: CorelDRAW 2018 (64 Bit) -->
<svg xmlns="http://www.w3.org/2000/svg" xml:space="preserve" width="116.554mm" height="29.0681mm" version="1.1" style="shape-rendering:geometricPrecision; text-rendering:geometricPrecision; image-rendering:optimizeQuality; fill-rule:evenodd; clip-rule:evenodd"
viewBox="0 0 10500.04 2618.66"
 xmlns:xlink="http://www.w3.org/1999/xlink">
 <defs>
  <style type="text/css">
   <![CDATA[
    .fil1 {fill:#A8CF45;fill-rule:nonzero}
    .fil0 {fill:#015A02;fill-rule:nonzero}
    .fil11 {fill:url(#id0)}
    .fil12 {fill:url(#id1)}
    .fil17 {fill:url(#id2)}
    .fil7 {fill:url(#id3)}
    .fil8 {fill:url(#id4)}
    .fil15 {fill:url(#id5)}
    .fil4 {fill:url(#id6)}
    .fil27 {fill:url(#id7)}
    .fil18 {fill:url(#id8)}
    .fil32 {fill:url(#id9)}
    .fil28 {fill:url(#id10)}
    .fil13 {fill:url(#id11)}
    .fil37 {fill:url(#id12)}
    .fil36 {fill:url(#id13)}
    .fil38 {fill:url(#id14)}
    .fil22 {fill:url(#id15)}
    .fil26 {fill:url(#id16)}
    .fil21 {fill:url(#id17)}
    .fil19 {fill:url(#id18)}
    .fil20 {fill:url(#id19)}
    .fil6 {fill:url(#id20)}
    .fil35 {fill:url(#id21)}
    .fil29 {fill:url(#id22)}
    .fil9 {fill:url(#id23)}
    .fil30 {fill:url(#id24)}
    .fil39 {fill:url(#id25)}
    .fil5 {fill:url(#id26)}
    .fil16 {fill:url(#id27)}
    .fil2 {fill:url(#id28)}
    .fil25 {fill:url(#id29)}
    .fil24 {fill:url(#id30)}
    .fil3 {fill:url(#id31)}
    .fil33 {fill:url(#id32)}
    .fil14 {fill:url(#id33)}
    .fil10 {fill:url(#id34)}
    .fil34 {fill:url(#id35)}
    .fil23 {fill:url(#id36)}
    .fil31 {fill:url(#id37)}
   ]]>
  </style>
  <linearGradient id="id0" gradientUnits="userSpaceOnUse" x1="2078.94" y1="2503.68" x2="2150.87" y2="1235.76">
   <stop offset="0" style="stop-opacity:1; stop-color:#619C0E"/>
   <stop offset="1" style="stop-opacity:1; stop-color:#A8CF45"/>
  </linearGradient>
  <linearGradient id="id1" gradientUnits="userSpaceOnUse" xlink:href="#id0" x1="758.9" y1="2537.93" x2="775.62" y2="1268.08">
  </linearGradient>
  <linearGradient id="id2" gradientUnits="userSpaceOnUse" xlink:href="#id0" x1="1144.8" y1="2491.06" x2="1079.6" y2="1215.63">
  </linearGradient>
  <linearGradient id="id3" gradientUnits="userSpaceOnUse" xlink:href="#id0" x1="1684.9" y1="2602.17" x2="1701.56" y2="1327.68">
  </linearGradient>
  <linearGradient id="id4" gradientUnits="userSpaceOnUse" xlink:href="#id0" x1="1958.67" y1="2882.42" x2="1975.38" y2="1612.54">
  </linearGradient>
  <linearGradient id="id5" gradientUnits="userSpaceOnUse" xlink:href="#id0" x1="1622.27" y1="2604.33" x2="1557.06" y2="1328.89">
  </linearGradient>
  <linearGradient id="id6" gradientUnits="userSpaceOnUse" xlink:href="#id0" x1="1365.39" y1="2607.22" x2="1437.68" y2="1334.68">
  </linearGradient>
  <linearGradient id="id7" gradientUnits="userSpaceOnUse" xlink:href="#id0" x1="765.56" y1="2537.76" x2="923.45" y2="1251.81">
  </linearGradient>
  <linearGradient id="id8" gradientUnits="userSpaceOnUse" xlink:href="#id0" x1="1691.64" y1="2590.53" x2="1845.68" y2="1322.75">
  </linearGradient>
  <linearGradient id="id9" gradientUnits="userSpaceOnUse" xlink:href="#id0" x1="1115.88" y1="2695.19" x2="1251.36" y2="1419.76">
  </linearGradient>
  <linearGradient id="id10" gradientUnits="userSpaceOnUse" xlink:href="#id0" x1="2290.15" y1="2607.51" x2="2142.14" y2="1333.49">
  </linearGradient>
  <linearGradient id="id11" gradientUnits="userSpaceOnUse" xlink:href="#id0" x1="2285.97" y1="2565.82" x2="2432.49" y2="1296.22">
  </linearGradient>
  <linearGradient id="id12" gradientUnits="userSpaceOnUse" xlink:href="#id0" x1="1429.12" y1="2871.05" x2="1655.45" y2="1640.04">
  </linearGradient>
  <linearGradient id="id13" gradientUnits="userSpaceOnUse" xlink:href="#id0" x1="667.52" y1="2670.2" x2="527.67" y2="1426.4">
  </linearGradient>
  <linearGradient id="id14" gradientUnits="userSpaceOnUse" xlink:href="#id0" x1="2069.88" y1="2521.06" x2="2296.2" y2="1290.06">
  </linearGradient>
  <linearGradient id="id15" gradientUnits="userSpaceOnUse" xlink:href="#id0" x1="1457.59" y1="2785.18" x2="1615.48" y2="1499.23">
  </linearGradient>
  <linearGradient id="id16" gradientUnits="userSpaceOnUse" xlink:href="#id0" x1="2072.31" y1="2503.05" x2="2004.54" y2="1209.21">
  </linearGradient>
  <linearGradient id="id17" gradientUnits="userSpaceOnUse" xlink:href="#id0" x1="1095.59" y1="2850.14" x2="1027.81" y2="1556.32">
  </linearGradient>
  <linearGradient id="id18" gradientUnits="userSpaceOnUse" xlink:href="#id0" x1="1987.88" y1="2796.35" x2="2145.76" y2="1510.41">
  </linearGradient>
  <linearGradient id="id19" gradientUnits="userSpaceOnUse" xlink:href="#id0" x1="1721.28" y1="2791.64" x2="1879.18" y2="1505.68">
  </linearGradient>
  <linearGradient id="id20" gradientUnits="userSpaceOnUse" xlink:href="#id0" x1="1150.72" y1="2503.14" x2="1223.02" y2="1230.61">
  </linearGradient>
  <linearGradient id="id21" gradientUnits="userSpaceOnUse" xlink:href="#id0" x1="688.96" y1="2841.97" x2="915.29" y2="1610.96">
  </linearGradient>
  <linearGradient id="id22" gradientUnits="userSpaceOnUse" xlink:href="#id0" x1="540.97" y1="2626.77" x2="777.51" y2="1366.17">
  </linearGradient>
  <linearGradient id="id23" gradientUnits="userSpaceOnUse" xlink:href="#id0" x1="852.46" y1="2924.13" x2="924.41" y2="1656.2">
  </linearGradient>
  <linearGradient id="id24" gradientUnits="userSpaceOnUse" xlink:href="#id0" x1="1608.6" y1="2646.07" x2="1845.16" y2="1385.48">
  </linearGradient>
  <linearGradient id="id25" gradientUnits="userSpaceOnUse" xlink:href="#id0" x1="766.72" y1="2555.9" x2="626.86" y2="1312.12">
  </linearGradient>
  <linearGradient id="id26" gradientUnits="userSpaceOnUse" xlink:href="#id0" x1="1463.51" y1="2691.01" x2="1480.18" y2="1416.53">
  </linearGradient>
  <linearGradient id="id27" gradientUnits="userSpaceOnUse" xlink:href="#id0" x1="1207.44" y1="2670.2" x2="1361.49" y2="1402.42">
  </linearGradient>
  <linearGradient id="id28" gradientUnits="userSpaceOnUse" xlink:href="#id0" x1="2272.7" y1="2576.53" x2="2289.37" y2="1302.05">
  </linearGradient>
  <linearGradient id="id29" gradientUnits="userSpaceOnUse" xlink:href="#id0" x1="1839.32" y1="2692.17" x2="2033.28" y2="1414.97">
  </linearGradient>
  <linearGradient id="id30" gradientUnits="userSpaceOnUse" xlink:href="#id0" x1="990.39" y1="2582.15" x2="886.02" y2="1294.53">
  </linearGradient>
  <linearGradient id="id31" gradientUnits="userSpaceOnUse" xlink:href="#id0" x1="560.53" y1="2597.09" x2="632.84" y2="1324.56">
  </linearGradient>
  <linearGradient id="id32" gradientUnits="userSpaceOnUse" xlink:href="#id0" x1="1766.53" y1="2792.33" x2="1618.52" y2="1518.27">
  </linearGradient>
  <linearGradient id="id33" gradientUnits="userSpaceOnUse" xlink:href="#id0" x1="546.49" y1="2585.43" x2="489.62" y2="1309.18">
  </linearGradient>
  <linearGradient id="id34" gradientUnits="userSpaceOnUse" xlink:href="#id0" x1="2338.76" y1="2731.09" x2="2410.71" y2="1463.17">
  </linearGradient>
  <linearGradient id="id35" gradientUnits="userSpaceOnUse" xlink:href="#id0" x1="1966.48" y1="2900.37" x2="1826.63" y2="1656.57">
  </linearGradient>
  <linearGradient id="id36" gradientUnits="userSpaceOnUse" xlink:href="#id0" x1="1359.09" y1="2862.1" x2="1291.33" y2="1568.26">
  </linearGradient>
  <linearGradient id="id37" gradientUnits="userSpaceOnUse" xlink:href="#id0" x1="1218.15" y1="2712.8" x2="1070.14" y2="1438.77">
  </linearGradient>
 </defs>
 <g id="Capa_x0020_1">
  <metadata id="CorelCorpID_0Corel-Layer"/>
  <path class="fil0" d="M4117.86 2613.95l-51.55 -299.86 -20.49 0 -109.81 247.46 -109.17 -247.46 -20.06 0 -52.19 299.86 21.99 0 45.48 -260.16 110.88 248.45 6.78 0 111.1 -248.81 45.04 260.52 21.99 0zm275.17 0l23.41 0 -129.22 -299.86 -19.42 0 -125.8 299.86 22.99 0 34.56 -81.89 158.43 0 35.05 81.89zm-115.16 -269.52l71.68 167.64 -141.72 0 70.04 -167.64zm395.75 -30.34l0 260.52 -190.13 -260.52 -19.35 0 0 299.86 20.99 0 0 -261.81 191.27 261.81 18.21 0 0 -299.86 -20.99 0zm124.73 278.95l0 -124.73 131.29 0 0 -20.13 -131.29 0 0 -113.52 142.44 0 0 -20.57 -163.86 0 0 299.79 168.57 0 0 -20.85 -147.15 0zm272.52 25.63c55.98,0 98.96,-43.2 98.96,-101.81l0 -202.77 -21.42 0 0 201.98c0,46.4 -33.84,81.6 -77.54,81.6 -44.55,0 -78.38,-34.98 -78.38,-81.6l0 -3.07 -21.42 0 0 3.86c0,58.61 43.62,101.81 99.81,101.81l0 0zm310.94 -0.07c90.32,0 155.29,-66.11 155.29,-154.36 0,-88.46 -64.97,-154.79 -155.29,-154.79 -90.38,0 -155.36,66.54 -155.36,154.79 0,88.03 64.97,154.36 155.36,154.36l0 0zm0 -21.13c-77.46,0 -133.44,-57.54 -133.44,-133.22 0,-75.9 55.98,-133.65 133.44,-133.65 77.47,0 133.37,57.33 133.37,133.65 0,76.11 -55.91,133.22 -133.37,133.22zm333.5 16.49l21.42 0 0 -299.86 -21.42 0 0 299.86zm313.22 -299.86l0 260.52 -190.13 -260.52 -19.35 0 0 299.86 20.99 0 0 -261.81 191.27 261.81 18.21 0 0 -299.86 -20.99 0zm280.8 0.07l-212.76 0 0 20.42 95.67 0 0 279.37 21.42 0 0 -279.37 95.66 0 0 -20.42zm68.48 278.87l0 -124.73 131.29 0 0 -20.13 -131.29 0 0 -113.52 142.44 0 0 -20.57 -163.86 0 0 299.79 168.57 0 0 -20.85 -147.15 0zm226.69 0.42l0 -279.37 -21.42 0 0 299.79 163.14 0 0 -20.42 -141.72 0zm188.98 20.49l21.42 0 0 -299.86 -21.42 0 0 299.86zm219.26 -143.22l0 20.57 138.15 0c-8.35,62.97 -58.19,105.74 -124.87,105.74 -75.67,0 -128.51,-54.76 -128.51,-132.73 0,-77.18 54.12,-133.09 128.51,-133.09 58.4,0 108.02,35.2 120.88,85.54l22.2 0c-13.06,-62.19 -72.75,-106.67 -143.5,-106.67 -86.25,0 -150,65.26 -150,154.22 0,88.82 62.4,153.86 150.43,153.86 84.61,0 145.36,-60.55 148,-147.44l-161.28 0zm241.4 122.3l0 -124.73 131.29 0 0 -20.13 -131.29 0 0 -113.52 142.44 0 0 -20.57 -163.86 0 0 299.79 168.57 0 0 -20.85 -147.15 0zm414.74 -278.95l0 260.52 -190.13 -260.52 -19.35 0 0 299.86 20.99 0 0 -261.81 191.27 261.81 18.21 0 0 -299.86 -20.99 0zm280.8 0.07l-212.76 0 0 20.42 95.67 0 0 279.37 21.42 0 0 -279.37 95.66 0 0 -20.42zm68.48 278.87l0 -124.73 131.29 0 0 -20.13 -131.29 0 0 -113.52 142.44 0 0 -20.57 -163.86 0 0 299.79 168.57 0 0 -20.85 -147.15 0zm414.96 -278.87l-91.89 0 0 299.72 91.89 0c87.96,0 151.86,-63.19 151.86,-150.08 0,-86.67 -63.68,-149.64 -151.86,-149.64l0 0zm-0.57 279.3l-69.9 0 0 -258.87 69.9 0c76.11,0 130.58,54.48 130.58,129.22 0,74.97 -54.76,129.65 -130.58,129.65zm234.76 -0.42l0 -124.73 131.29 0 0 -20.13 -131.29 0 0 -113.52 142.44 0 0 -20.57 -163.86 0 0 299.79 168.57 0 0 -20.85 -147.15 0zm226.69 0.42l0 -279.37 -21.42 0 0 299.79 163.14 0 0 -20.42 -141.72 0zm396.04 -279.37l-102.95 0 0 299.86 21.42 0 0 -115.66 81.53 0c54.98,0 95.82,-39.48 95.82,-92.24 0,-52.69 -41.27,-91.96 -95.82,-91.96l0 0zm-1 163.21l-80.53 0 0 -142.22 80.53 0c43.27,0 74.97,30.41 74.97,70.97 0,40.84 -31.7,71.25 -74.97,71.25l0 0zm344.56 136.65l23.41 0 -129.22 -299.86 -19.42 0 -125.8 299.86 22.99 0 34.56 -81.89 158.43 0 35.05 81.89zm-115.16 -269.52l71.68 167.64 -141.72 0 70.04 -167.64zm261.31 273.38c58.26,0 100.95,-32.85 100.95,-85.74 0,-59.4 -50.68,-71.19 -97.95,-82.03 -42.48,-9.5 -82.32,-18.35 -82.32,-59.83 0,-36.06 30.92,-59.05 76.25,-59.05 44.05,0 74.54,24.92 74.54,64.48l21.42 0c0,-51.69 -37.2,-85.32 -95.6,-85.32 -59.55,0 -98.02,31.34 -98.02,80.68 0,57.12 50.04,68.61 96.6,79.11 42.98,9.64 82.96,18.49 82.96,62.19 0,38.76 -33.28,64.54 -79.04,64.54 -50.33,0 -84.67,-27.92 -84.67,-72.04l-21.85 0c0,56.62 42.69,93.03 106.74,93.03l0 0zm333.85 -303.65l-212.76 0 0 20.42 95.67 0 0 279.37 21.42 0 0 -279.37 95.66 0 0 -20.42zm166 304.43c90.32,0 155.29,-66.11 155.29,-154.36 0,-88.46 -64.97,-154.79 -155.29,-154.79 -90.38,0 -155.36,66.54 -155.36,154.79 0,88.03 64.97,154.36 155.36,154.36l0 0zm0 -21.13c-77.46,0 -133.44,-57.54 -133.44,-133.22 0,-75.9 55.98,-133.65 133.44,-133.65 77.47,0 133.37,57.33 133.37,133.65 0,76.11 -55.91,133.22 -133.37,133.22z"/>
  <g id="_883420608">
   <path class="fil0" d="M4234.39 581.27l-479.77 0 0 1295.85 212.88 0 0 -440.59 266.88 0c252.69,0 442.14,-183.27 442.14,-427.63 0,-245.6 -190.98,-427.63 -442.14,-427.63zm-10.49 653.47l-256.4 0 0 -451.7 256.4 0c139.15,0 236.03,95.65 236.03,225.85 0,130.2 -96.88,225.85 -236.03,225.85l0 0zm1380.33 -357.59l-24.07 124.96c-90.71,-93.18 -218.44,-149.02 -365.92,-149.02 -297.74,0 -520.19,223.06 -520.19,523.59 0,299.89 222.45,524.82 520.19,524.82 145.94,0 272.13,-54.93 362.84,-146.55l19.75 121.56 165.68 0 0 -999.35 -158.27 0zm-373.64 827.8c-188.52,0 -327.66,-141 -327.66,-327.97 0,-187.28 139.15,-328.29 327.66,-328.29 188.52,0 326.12,139.46 326.12,327.98 0,188.52 -137.61,328.28 -326.12,328.28l0 0zm1061.3 196.54c243.74,0 405.72,-125.89 405.72,-319.95 0,-246.52 -205.49,-279.22 -374.26,-307.61 -120.64,-19.75 -222.76,-37.03 -222.76,-125.57 0,-72.82 70.34,-121.26 183.89,-121.26 120.94,0 193.15,51.21 197.16,146.25l194.69 0c-4.01,-193.76 -154.58,-320.26 -386.91,-320.26 -232.64,0 -387.52,122.8 -387.52,302.05 0,231.71 196.23,269.66 362.83,298.04 122.49,20.67 229.55,42.27 229.55,137.3 0,83.61 -84.84,130.2 -194.99,130.2 -120.64,0 -209.5,-55.23 -214.74,-161.06l-200.55 0c5.24,207.64 165.07,341.86 407.89,341.86z"/>
   <path class="fil1" d="M7259.08 1690.46c-120.95,0 -187.28,-66.65 -187.28,-185.74l0 -451.39 295.58 0 0 -175.87 -297.43 0 0 -233.25 -35.17 0 -347.11 369.32 0 39.8 178.64 0 0 467.74c0,220.61 135.14,355.74 353.89,355.74l152.72 0 0 -186.35 -113.84 0zm1155.1 -310.7c0,-291.26 -203.64,-526.67 -509.7,-526.67 -292.8,0 -513.71,224.92 -513.71,524.2 0,298.67 221.52,524.21 513.71,524.21 223.38,0 405.72,-128.05 485.33,-339.09l-216.28 0c-52.76,91.33 -149.64,146.55 -269.04,146.55 -163.53,0 -280.15,-99.65 -306.07,-261.95l811.45 0c2.47,-22.52 4.32,-44.74 4.32,-67.26l0 0zm-509.7 -341.24c152.42,0 266.88,89.78 303.59,241.59l-604.42 0c33.63,-148.41 146.25,-241.59 300.83,-241.59l0 0zm1082.27 862.98c246.52,0 443.37,-154.89 498.29,-388.45l-207.34 0c-54.3,121.87 -160.13,192.21 -290.95,192.21 -178.34,0 -315.02,-143.16 -315.02,-328.58 0,-185.13 134.83,-327.36 315.02,-327.36 130.2,0 239.73,69.42 292.49,184.51l203.63 0c-55.54,-229.55 -248.68,-380.73 -495.82,-380.73 -298.66,0 -524.5,224.61 -524.5,523.27 0,298.67 226.15,525.14 524.2,525.14l0 0zm1134.73 -1045.94c-133.91,0 -248.37,50.91 -324.89,136.37l0 -472.06 -205.48 0 0 1357.25 205.48 0 0 -534.69c0,-176.79 112.92,-302.37 268.74,-302.37 151.8,0 229.24,96.88 229.24,277.68l0 559.38 205.48 0 0 -601.65c0,-257.32 -145.32,-419.91 -378.57,-419.91l0 0z"/>
  </g>
  <path class="fil2" d="M2301.04 974.55c10.83,456.43 -2.41,844.41 -6.29,1193.02 -7.55,9.8 -15.27,19.48 -23.17,29.01l-0.3 0.34c-10.63,12.82 -21.58,25.43 -32.83,37.75l-1.43 1.53c-8.22,8.99 -16.57,17.84 -25.1,26.52 -2.62,-478.26 -7.51,-945.48 89.11,-1288.17z"/>
  <path class="fil3" d="M644.07 997.03c-39.12,416.8 -54.04,777.63 -72.02,1103 21.93,33.54 45.69,65.78 71.2,96.56l0.32 0.34 5.86 7.03c33.66,-447.16 62.83,-878.91 -5.36,-1206.92z"/>
  <path class="fil4" d="M1448.91 1007.16c-58.65,624.87 -62.89,1123.93 -104.63,1566.32l5.32 0.61 -5.32 -0.6 5.32 0.6c8.79,0.88 17.63,1.66 26.48,2.33l0.22 0.01c8.86,0.69 17.77,1.23 26.73,1.7l0.12 0.02c8.2,0.39 16.41,0.71 24.64,0.95 37.21,-570.67 107.79,-1155.09 21.13,-1571.94z"/>
  <path class="fil5" d="M1491.82 1089.02c14.02,590.2 -12.21,1066.01 -6.43,1490.13l-0.7 0.03 -0.04 0c-9.06,0.22 -18.13,0.34 -27.23,0.34 -9.11,0 -18.16,-0.13 -27.23,-0.34l-0.05 0c-8.93,-0.23 -17.86,-0.59 -26.75,-1 0.05,-546.13 -21.69,-1098.57 88.43,-1489.16z"/>
  <path class="fil6" d="M1234.26 903.08c-61.18,651.59 -63.15,1166.39 -110.19,1622.76l7.41 2.38c4.02,1.31 8.03,2.65 12.07,3.91 3.71,1.15 7.47,2.23 11.2,3.33 4.53,1.36 9.07,2.77 13.65,4.04 4.02,1.14 8.05,2.19 12.04,3.26 4.41,1.2 8.79,2.45 13.19,3.57 2.78,0.73 5.6,1.34 8.4,2.05l6.41 1.59c35.4,-594.09 116.28,-1211.78 25.81,-1646.89z"/>
  <path class="fil7" d="M1713.22 1000.18c14.69,617.87 -14.76,1110.38 -5.39,1549.43 -4.06,1.02 -8.14,2.01 -12.23,2.94l-0.05 0.02c-8.32,1.93 -16.73,3.76 -25.13,5.48l-0.09 0c-5.53,1.14 -11.14,2.16 -16.73,3.21 -3.1,0.57 -6.21,1.22 -9.32,1.78 -3.68,0.65 -7.36,1.23 -11.04,1.84l-8.63 1.44c2.56,-570.8 -26.7,-1157.16 88.6,-1566.14z"/>
  <path class="fil8" d="M2147.88 1288.35c-64.25,447.64 -141.01,829.09 -202.59,1172.04l-7.56 3.94c-1.69,0.83 -3.4,1.66 -5.08,2.51 -5.9,2.96 -11.77,5.95 -17.75,8.77 -2.29,1.12 -4.6,2.16 -6.91,3.25 -5.44,2.55 -10.85,5.13 -16.33,7.59 -2.37,1.07 -4.77,2.05 -7.15,3.14 -5.42,2.4 -10.83,4.8 -16.29,7.11 -3,1.26 -6.06,2.46 -9.05,3.71l-4.78 1.95c73.26,-452.02 146.43,-889.29 293.49,-1214.01z"/>
  <path class="fil9" d="M774.94 1320.75c29.96,411.18 74.11,768.17 110.1,1090.5l3.6 2.33c1.7,1.07 3.43,2.14 5.15,3.21 5.5,3.49 11.02,6.93 16.57,10.33l3.48 2.03c6.08,3.67 12.2,7.27 18.35,10.82 1.63,0.93 3.28,1.82 4.91,2.74 5.81,3.32 11.63,6.58 17.49,9.77l2.77 1.44c5.78,3.12 11.59,6.18 17.44,9.22 -39.26,-424.09 -83.93,-830.03 -199.87,-1142.39z"/>
  <path class="fil10" d="M2261.26 1127.73c25.74,353.2 61.93,666.43 94.45,952.04 27.31,-43.96 51.5,-90.08 72.24,-138.03 -34.4,-302.08 -81.14,-583.52 -166.69,-814.01z"/>
  <path class="fil11" d="M2001.42 900.3c40.68,558.31 107.54,1016.78 144.56,1424.13l0.36 -0.32 1.49 -1.25c5.86,-5.06 11.63,-10.19 17.39,-15.38l1.59 -1.39c6.04,-5.49 11.99,-11.04 17.92,-16.63l0.56 -0.53c5.64,-5.35 11.19,-10.77 16.73,-16.26l1.46 -1.44c5.78,-5.76 11.5,-11.58 17.13,-17.46 -45.76,-498.63 -84.11,-989.54 -219.18,-1353.48z"/>
  <path class="fil12" d="M948.13 943.88c-74.51,519.03 -165.79,949.06 -230.77,1333.27l-4.5 -4.47 -1.5 -1.44c-11.48,-11.42 -22.64,-23.08 -33.54,-35.03l-1.43 -1.53c-9.86,-10.78 -19.48,-21.79 -28.85,-32.97 75.73,-467.49 148.78,-922.61 300.58,-1257.82z"/>
  <path class="fil13" d="M2500.68 974.61c-88.34,449.99 -141.21,835.5 -196.65,1180.77 47.21,-63.08 87.56,-131.61 119.89,-204.46 119.29,-195.23 105.84,-701.99 76.76,-976.31z"/>
  <path class="fil14" d="M444.89 983.15c50.73,407 76.75,760.53 104.03,1079.86 -47.37,-79.47 -101.71,-236.68 -127.03,-327.84 -47.78,-308.81 -18.21,-519.6 23,-752.02z"/>
  <path class="fil15" d="M1512.54 1002.45c77.35,620.43 97.28,1116.69 151.67,1556.8l-10.6 2c-3.1,0.57 -6.21,1.22 -9.32,1.78 -3.68,0.65 -7.36,1.23 -11.04,1.84 -5.05,0.85 -10.07,1.71 -15.17,2.49l-0.08 0.03c-8.62,1.32 -17.28,2.52 -25.96,3.64l-0.03 0 -10.09 1.13c-54.85,-570.14 -143.08,-1153.91 -69.38,-1569.7z"/>
  <path class="fil16" d="M1428.68 1079.89c-113.26,576.85 -168.2,1047.73 -245.01,1463.73 3.32,0.92 6.64,1.85 9.96,2.69 2.78,0.73 5.6,1.34 8.4,2.05 5.72,1.42 11.43,2.84 17.19,4.18l0.07 0.02c8.32,1.95 16.71,3.73 25.1,5.48l0.1 0c5.54,1.14 11.15,2.16 16.7,3.21l2.17 0.41c92.72,-539.19 207.75,-1081.49 165.32,-1481.78z"/>
  <path class="fil17" d="M1035.08 889.2c83.36,668.79 100.05,1193.29 165.08,1658.7 -2.18,-0.53 -4.37,-1.02 -6.52,-1.59 -4.4,-1.12 -8.77,-2.37 -13.19,-3.57 -3.99,-1.07 -8.03,-2.12 -12.04,-3.26 -4.58,-1.26 -9.12,-2.68 -13.65,-4.04 -3.73,-1.1 -7.49,-2.18 -11.2,-3.33 -4.04,-1.26 -8.05,-2.6 -12.07,-3.91 -4.27,-1.37 -8.53,-2.69 -12.76,-4.15l-8.4 -2.92c-54.05,-589.64 -151.63,-1201 -75.25,-1631.94z"/>
  <path class="fil18" d="M1912.89 1000.24c-122.27,622.71 -176.59,1121.9 -263.8,1561.89l4.52 -0.87c5.59,-1.05 11.2,-2.07 16.73,-3.21l0.09 0c8.4,-1.72 16.8,-3.55 25.13,-5.48l0.05 -0.02c5.77,-1.3 11.48,-2.76 17.2,-4.18 2.81,-0.71 5.61,-1.34 8.42,-2.05 4.39,-1.12 8.77,-2.37 13.16,-3.57l2.97 -0.8c94.17,-558.74 219.52,-1126.58 175.53,-1541.71z"/>
  <path class="fil19" d="M2371.25 1202.55c-176.98,483.21 -299.8,891.64 -421.75,1255.62l7.98 -4.25 2.75 -1.44c5.86,-3.2 11.69,-6.46 17.51,-9.77 1.63,-0.92 3.28,-1.81 4.91,-2.74 6.14,-3.55 12.25,-7.15 18.33,-10.82l3.47 -2.03c5.56,-3.4 11.09,-6.85 16.59,-10.33 1.73,-1.07 3.46,-2.14 5.14,-3.21 5.51,-3.52 10.93,-7.12 16.36,-10.75 1.58,-1.06 3.23,-2.07 4.82,-3.18l8.04 -5.5c152.44,-439.25 296.03,-863.42 315.85,-1191.61z"/>
  <path class="fil20" d="M2104.68 1197.83c-194.93,532.18 -324.13,973.62 -458.87,1364.93l7.79 -1.5c5.59,-1.05 11.2,-2.07 16.73,-3.21l0.09 0c8.4,-1.72 16.8,-3.55 25.13,-5.48l0.05 -0.02c5.77,-1.3 11.48,-2.76 17.2,-4.18 2.81,-0.71 5.61,-1.34 8.42,-2.05 4.39,-1.12 8.77,-2.37 13.16,-3.57l1.34 -0.37c170.62,-492.76 346.84,-978.38 368.96,-1344.55z"/>
  <path class="fil21" d="M824.36 1233.48c145.72,504.42 240.63,927.21 338.96,1304.55l-8.57 -2.58c-3.73,-1.1 -7.49,-2.18 -11.2,-3.33 -4.04,-1.26 -8.05,-2.6 -12.07,-3.91 -4.27,-1.37 -8.53,-2.69 -12.76,-4.15 -5.04,-1.7 -10.03,-3.5 -15.04,-5.28 -3.03,-1.05 -6.04,-2.07 -9.04,-3.17 -5.25,-1.92 -10.5,-3.94 -15.7,-5.95l-5.5 -2.09c-127.64,-471.25 -252.35,-929.88 -249.08,-1274.09z"/>
  <path class="fil22" d="M1840.98 1191.38c-198.25,541.3 -328.54,988.7 -465.79,1384.97l0.9 0.07 0.22 0.01c8.86,0.69 17.77,1.23 26.73,1.7l0.12 0.02c8.97,0.43 17.97,0.78 26.99,1.02l0.05 0c8.93,0.22 17.81,0.34 26.77,0.34 175.17,-507.64 361.26,-1011.21 384.02,-1388.13z"/>
  <path class="fil23" d="M1087.86 1245.43c149.5,517.5 245.52,949.11 346.65,1333.84l-4.32 -0.1 -0.05 0c-9.02,-0.23 -18.02,-0.59 -26.99,-1.02l-0.12 -0.02c-8.95,-0.47 -17.87,-1.01 -26.73,-1.7l-0.22 -0.01c-8.12,-0.62 -16.24,-1.32 -24.31,-2.12 -132.6,-490.35 -267.31,-971.35 -263.91,-1328.87z"/>
  <path class="fil24" d="M768.05 970.94c127.1,607.29 199.47,1096.31 288.42,1529.81l-0.81 -0.34c-3.03,-1.25 -6.04,-2.45 -9.04,-3.71 -5.46,-2.31 -10.88,-4.71 -16.31,-7.11 -2.39,-1.08 -4.79,-2.06 -7.15,-3.14 -5.48,-2.46 -10.9,-5.04 -16.32,-7.59 -2.31,-1.09 -4.63,-2.14 -6.92,-3.25 -3.79,-1.8 -7.57,-3.68 -11.33,-5.55 -104.71,-547.35 -226.87,-1099.59 -220.53,-1499.13z"/>
  <path class="fil25" d="M2173.57 1100.41c-158.1,557.86 -261.32,1016.05 -371.29,1421.52l8.85 -3.15c3.01,-1.05 6.04,-2.07 9.06,-3.17 5.25,-1.92 10.48,-3.94 15.69,-5.95 2.86,-1.1 5.73,-2.14 8.58,-3.26 4.92,-1.95 9.8,-3.99 14.71,-5.99 2.99,-1.25 6.05,-2.45 9.05,-3.71l3.41 -1.46c136.48,-510.27 281.49,-1016.88 301.94,-1394.83z"/>
  <path class="fil26" d="M1801.08 886.38c160.36,555.09 259.21,1011.33 368.77,1416.93l-3.05 2.78 -1.59 1.39c-5.76,5.19 -11.52,10.31 -17.39,15.38l-1.49 1.25c-5.88,5.07 -11.86,10.1 -17.85,15.06l-1.77 1.41c-5.92,4.85 -11.92,9.66 -17.95,14.4l-2.73 2.12 -2.43 1.87c-143.62,-539.02 -306.28,-1080.15 -302.54,-1472.59z"/>
  <path class="fil27" d="M1148.95 943.97c-187.65,512.36 -314.39,940.62 -443.82,1321l6.23 6.27 1.5 1.44c5.5,5.5 11.06,10.92 16.71,16.26l0.56 0.53c5.93,5.59 11.87,11.14 17.9,16.63l1.59 1.39c5.76,5.19 11.52,10.31 17.4,15.38l0.86 0.72c174.32,-504.75 358.44,-1004.79 381.08,-1379.62z"/>
  <path class="fil28" d="M2042.4 1013.15c101.98,449.35 166.66,834.35 232.6,1179.28l-3.41 4.15 -0.3 0.34c-10.63,12.82 -21.58,25.43 -32.83,37.75l-1.43 1.53c-9.97,10.91 -20.14,21.59 -30.58,32.06 -96.25,-462.07 -189.87,-911.36 -164.04,-1255.11z"/>
  <path class="fil29" d="M899.37 1053.6c-124.18,411.6 -212.07,769.57 -296.24,1091.41 12.85,17.6 26.23,34.81 40.12,51.57l0.32 0.34c7.86,9.49 15.9,18.85 24.1,28.06 121.09,-429.71 233.41,-844.21 231.7,-1171.38z"/>
  <path class="fil30" d="M1967.01 1072.89c-179.54,595.13 -283.22,1078.17 -409.53,1501.94l7.73 -0.74c4.28,-0.46 8.51,-0.99 12.75,-1.49 4.69,-0.53 9.39,-1.01 14.04,-1.58l0.03 0c8.68,-1.12 17.34,-2.32 25.96,-3.64l0.08 -0.03c5.1,-0.77 10.12,-1.64 15.17,-2.49 3.68,-0.61 7.35,-1.19 11.04,-1.84l1.73 -0.32c148.3,-539.18 323.1,-1082.23 321,-1489.82zm-389.05 1499.71c-4.23,0.5 -8.47,1.03 -12.75,1.49l12.75 -1.49z"/>
  <path class="fil31" d="M970.4 1118.44c128.61,566.71 197.91,1031.07 285.17,1441.75l-11.08 -2.14 -0.1 0c-8.39,-1.75 -16.78,-3.53 -25.1,-5.48l-0.07 -0.02c-5.76,-1.34 -11.47,-2.76 -17.19,-4.18 -2.79,-0.71 -5.61,-1.32 -8.4,-2.05 -4.4,-1.12 -8.77,-2.37 -13.19,-3.57 -3.83,-1.03 -7.69,-2.04 -11.58,-3.14 -106.56,-519.24 -227.41,-1036.32 -198.47,-1421.18z"/>
  <path class="fil32" d="M1347.95 1098.49c-119.89,553.43 -184.44,1009.12 -264.68,1412.83l11.37 4.28c3,1.1 6.02,2.12 9.04,3.17 5.01,1.77 10,3.58 15.04,5.28 4.23,1.46 8.49,2.78 12.76,4.15 4.02,1.31 8.03,2.65 12.07,3.91 3.71,1.15 7.47,2.23 11.2,3.33l5.67 1.7c102.19,-525.51 220.58,-1050.29 187.53,-1438.66z"/>
  <path class="fil33" d="M1518.78 1197.97c117.19,516.35 185.14,947.75 262.29,1330.99l-9.79 3.16c-3.7,1.15 -7.47,2.23 -11.19,3.33 -4.55,1.34 -9.07,2.77 -13.64,4.04 -4.02,1.14 -8.05,2.19 -12.06,3.26 -4.4,1.2 -8.77,2.45 -13.16,3.57 -2.81,0.71 -5.61,1.34 -8.42,2.05l-9.66 2.4c-102.78,-496.02 -212.02,-984.87 -184.36,-1352.8z"/>
  <path class="fil34" d="M1881.32 1326.68c27.02,435.91 28.55,810.9 36.81,1147.4l-3.23 1.54c-2.29,1.12 -4.6,2.16 -6.91,3.25 -5.44,2.55 -10.85,5.13 -16.33,7.59 -2.37,1.07 -4.77,2.05 -7.15,3.14 -5.42,2.4 -10.83,4.8 -16.29,7.11 -3,1.26 -6.06,2.46 -9.05,3.71 -4.91,2 -9.79,4.04 -14.71,5.99 -2.85,1.12 -5.71,2.16 -8.58,3.26l-1.46 0.56c-18.63,-436.6 -32.49,-857.75 46.9,-1183.55z"/>
  <path class="fil35" d="M883.74 1278.05c-52.28,394.55 -79.93,740.11 -108.4,1051.91l11.02 9.22 1.77 1.41c5.91,4.88 11.89,9.66 17.95,14.4l2.71 2.12c5.76,4.42 11.5,8.87 17.32,13.21l3.72 2.71c5.62,4.17 11.23,8.28 16.93,12.31l2.14 1.49 6.94 4.86c45.54,-409.04 81.31,-800.97 27.91,-1113.63z"/>
  <path class="fil36" d="M582.37 1096.5c24.9,401.73 28.15,751.71 34.96,1067.5 -34.2,-44.72 -64.91,-92.24 -91.72,-142.18 -10.59,-342.25 -6.84,-664.38 56.75,-925.32z"/>
  <path class="fil37" d="M1623.91 1307.13c-64.89,489.66 -91.82,903.86 -129.55,1271.74l17.31 -0.71 0.12 -0.02c8.96,-0.47 17.86,-1.01 26.75,-1.7l0.2 -0.01c8.85,-0.66 17.69,-1.46 26.48,-2.33 4.28,-0.46 8.51,-0.99 12.75,-1.49l0.91 -0.1c52.5,-463.05 105.01,-914.22 45.03,-1265.38zm-45.94 1265.48c-4.23,0.5 -8.47,1.03 -12.75,1.49l12.75 -1.49z"/>
  <path class="fil38" d="M2264.64 957.15c-71.73,541.32 -97.05,990.43 -141.88,1386.67l3.96 -3.23 1.77 -1.41c5.99,-4.96 11.96,-9.99 17.85,-15.06l1.49 -1.25c5.86,-5.06 11.63,-10.19 17.39,-15.38l1.59 -1.39c6.04,-5.49 11.99,-11.04 17.92,-16.63l0.56 -0.53c5.64,-5.35 11.19,-10.77 16.73,-16.26l1.46 -1.44c4.04,-4.02 8.04,-8.07 12.02,-12.16 53.8,-475.79 110.73,-941.54 49.16,-1301.93z"/>
  <path class="fil39" d="M681.57 982.22c31.17,503.05 28.4,924.96 41.21,1300.23 -3.33,-3.22 -6.64,-6.5 -9.93,-9.77l-1.5 -1.44c-11.48,-11.42 -22.64,-23.08 -33.54,-35.03l-1.43 -1.53c-11.26,-12.31 -22.2,-24.91 -32.83,-37.75l-0.32 -0.34 -7.67 -9.36c-19.06,-444.26 -34.69,-873.89 45.99,-1205z"/>
  <path class="fil1" d="M1503.1 0.63c-29.47,-0.86 -58.66,-0.79 -88.11,-0.05l2.5 85.65c27.82,-0.7 55.42,-0.77 83.24,0.05l2.38 -85.65 -88.11 -0.05 -11.42 0.39 3.52 85.63 10.4 -0.36 85.62 -85.61zm-187.51 6.2c-28.83,2.72 -59.13,6.21 -87.64,11.13l13.78 84.57c26.76,-4.62 55.27,-7.88 82.33,-10.44l-8.48 -85.27zm-174.21 27.46c-28.58,6.04 -57.62,13.61 -85.73,21.63l23.83 82.32c26.18,-7.62 53.74,-14.63 80.42,-20.27l-18.52 -83.68zm-169.85 48.39c-28.07,9.88 -54.84,20.71 -82.4,31.84l33.74 78.77c24.42,-11.01 52.12,-20.97 77.45,-29.91l-28.78 -80.7zm-162.43 68.5c-26.44,13.13 -52.25,26.94 -77.89,41.55l42.59 74.34c24.19,-13.72 48.35,-26.68 73.24,-39.06l-37.94 -76.83zm-153.13 87.74c-24.3,15.14 -49.26,33.55 -72.32,50.64l51.31 68.64c21.69,-16.12 45.16,-33.38 68.05,-47.64l-47.04 -71.64zm-141.58 105.67c-22.33,18.93 -44.64,38.58 -65.68,58.92l59.48 61.71c20.06,-19.15 40.7,-37.55 61.87,-55.48l-55.66 -65.14zm-127.71 121.69c-19.91,21.45 -39.68,43.67 -58.14,66.37l66.39 54.17c17.64,-21.38 35.93,-42.18 54.8,-62.49l-63.04 -58.04zm-112.19 136.08c-17.32,23.86 -33.84,48.08 -49.79,72.87l72.38 45.87c14.99,-23.36 30.59,-46.11 46.9,-68.57l-69.49 -50.17zm-95.11 148.63c-14.25,25.72 -27.94,51.76 -40.64,78.3l77.34 36.87c12.3,-25.05 24.79,-49.37 38.33,-73.78l-75.03 -41.39zm-76.5 159c-11.09,27.23 -21.54,54.85 -30.93,82.73l81.3 27.09c9.24,-26.29 18.55,-51.94 29.08,-77.77l-79.46 -32.04zm-56.68 166.93c-7.97,28.05 -14.61,57.32 -20.66,85.9l83.93 17.34c5.61,-26.83 11.93,-54.34 19.4,-80.69l-82.68 -22.55zm-36.06 172.91c-4.25,29.56 -6.79,58.29 -10.13,87.8l85.45 6.67c2.47,-27.66 5.59,-54.9 9.53,-82.4l-84.84 -12.06zm2904.08 79.38c-2.61,-29.13 -6.04,-58.89 -10.63,-87.76l-84.65 13.3c4.27,27.13 7.51,55.01 9.96,82.37l85.32 -7.9zm-26.48 -174.4c-6.1,-28.75 -13.16,-57.52 -21.12,-85.8l-82.47 23.22c7.42,26.59 14.11,53.57 19.83,80.58l83.76 -18zm-47.39 -170.15c-9.69,-27.88 -20.09,-55.27 -31.36,-82.55l-79 33.23c10.78,25.28 20.45,51.66 29.47,77.63l80.89 -28.31zm-67.68 -163.05c-12.98,-26.44 -26.52,-52.26 -41,-77.92l-74.59 42.19c13.68,24.31 26.49,48.69 38.78,73.73l76.81 -38zm-86.73 -153.38c-15.26,-23.54 -33.03,-51.03 -50.39,-72.82l-68.63 51.3 -0.14 -0.2c16.4,22.39 32.03,44.93 47.18,68.2l71.98 -46.48zm-104.87 -142.22c-19.06,-22.73 -38.4,-44.22 -58.52,-65.98l-62.1 59.07c19,19.35 37.69,41.39 55.15,62.21l65.47 -55.3zm-120.92 -128.37c-21.54,-20.19 -43.41,-39.51 -66.02,-58.5l-54.66 65.99c21.31,17.86 41.91,36.16 62.21,55.18l58.46 -62.66zm-135.46 -112.99c-23.72,-17.4 -47.87,-34.23 -72.58,-50.2l-46.31 72.09c23.3,15.14 45.94,30.88 68.34,47.3l50.56 -69.2zm-148.05 -95.94c-25.66,-14.53 -51.64,-28.09 -78.09,-41.12l-37.33 77.14c24.89,12.22 49.36,25.05 73.5,38.71l41.92 -74.74zm-158.54 -77.44c-27.34,-11.32 -54.66,-21.56 -82.55,-31.4l-27.67 81.11c26.16,8.96 52.07,18.95 77.62,29.55l32.6 -79.27zm-166.88 -57.73c-28.41,-7.83 -56.72,-14.82 -85.54,-21.08l-17.86 83.81c27.22,5.88 53.97,12.54 80.84,19.95l22.56 -82.68zm-172.44 -36.98c-29.14,-4.43 -58.37,-7.92 -87.72,-10.64l-7.25 85.39c27.61,2.64 54.94,5.83 82.38,10l12.59 -84.75z"/>
 </g>
</svg>
