<?xml version="1.0" encoding="UTF-8"?>
<!DOCTYPE svg PUBLIC "-//W3C//DTD SVG 1.1//EN" "http://www.w3.org/Graphics/SVG/1.1/DTD/svg11.dtd">
<!-- Creator: CorelDRAW 2018 (64 Bit) -->
<svg xmlns="http://www.w3.org/2000/svg" xml:space="preserve" width="95.7734mm" height="80.2945mm" version="1.1" style="shape-rendering:geometricPrecision; text-rendering:geometricPrecision; image-rendering:optimizeQuality; fill-rule:evenodd; clip-rule:evenodd"
viewBox="0 0 10905.62 9143.05"
 xmlns:xlink="http://www.w3.org/1999/xlink">
 <defs>
  <style type="text/css">
   <![CDATA[
    .fil39 {fill:#015A02}
    .fil38 {fill:#A8CF45;fill-rule:nonzero}
    .fil40 {fill:#015A02;fill-rule:nonzero}
    .fil31 {fill:url(#id0)}
    .fil35 {fill:url(#id1)}
    .fil19 {fill:url(#id2)}
    .fil3 {fill:url(#id3)}
    .fil9 {fill:url(#id4)}
    .fil14 {fill:url(#id5)}
    .fil25 {fill:url(#id6)}
    .fil33 {fill:url(#id7)}
    .fil18 {fill:url(#id8)}
    .fil32 {fill:url(#id9)}
    .fil5 {fill:url(#id10)}
    .fil20 {fill:url(#id11)}
    .fil29 {fill:url(#id12)}
    .fil30 {fill:url(#id13)}
    .fil24 {fill:url(#id14)}
    .fil7 {fill:url(#id15)}
    .fil6 {fill:url(#id16)}
    .fil22 {fill:url(#id17)}
    .fil21 {fill:url(#id18)}
    .fil17 {fill:url(#id19)}
    .fil27 {fill:url(#id20)}
    .fil1 {fill:url(#id21)}
    .fil0 {fill:url(#id22)}
    .fil28 {fill:url(#id23)}
    .fil12 {fill:url(#id24)}
    .fil13 {fill:url(#id25)}
    .fil37 {fill:url(#id26)}
    .fil26 {fill:url(#id27)}
    .fil10 {fill:url(#id28)}
    .fil16 {fill:url(#id29)}
    .fil8 {fill:url(#id30)}
    .fil23 {fill:url(#id31)}
    .fil15 {fill:url(#id32)}
    .fil2 {fill:url(#id33)}
    .fil11 {fill:url(#id34)}
    .fil36 {fill:url(#id35)}
    .fil34 {fill:url(#id36)}
    .fil4 {fill:url(#id37)}
   ]]>
  </style>
  <linearGradient id="id0" gradientUnits="userSpaceOnUse" x1="5975.25" y1="4511.48" x2="5736.14" y2="2453.06">
   <stop offset="0" style="stop-opacity:1; stop-color:#619C0E"/>
   <stop offset="1" style="stop-opacity:1; stop-color:#A8CF45"/>
  </linearGradient>
  <linearGradient id="id1" gradientUnits="userSpaceOnUse" xlink:href="#id0" x1="5430.13" y1="4638.67" x2="5795.78" y2="2649.78">
  </linearGradient>
  <linearGradient id="id2" gradientUnits="userSpaceOnUse" xlink:href="#id0" x1="4891.24" y1="4604.89" x2="4781.75" y2="2514.49">
  </linearGradient>
  <linearGradient id="id3" gradientUnits="userSpaceOnUse" xlink:href="#id0" x1="5485.68" y1="4347.78" x2="5512.63" y2="2288.65">
  </linearGradient>
  <linearGradient id="id4" gradientUnits="userSpaceOnUse" xlink:href="#id0" x1="6480.01" y1="4045.13" x2="6596.24" y2="1996.58">
  </linearGradient>
  <linearGradient id="id5" gradientUnits="userSpaceOnUse" xlink:href="#id0" x1="5071.96" y1="4314.17" x2="5320.86" y2="2265.85">
  </linearGradient>
  <linearGradient id="id6" gradientUnits="userSpaceOnUse" xlink:href="#id0" x1="4358.03" y1="4100.21" x2="4613.14" y2="2022.53">
  </linearGradient>
  <linearGradient id="id7" gradientUnits="userSpaceOnUse" xlink:href="#id0" x1="4234.26" y1="4591.69" x2="4599.94" y2="2602.82">
  </linearGradient>
  <linearGradient id="id8" gradientUnits="userSpaceOnUse" xlink:href="#id0" x1="5902.17" y1="4510.37" x2="6157.26" y2="2432.7">
  </linearGradient>
  <linearGradient id="id9" gradientUnits="userSpaceOnUse" xlink:href="#id0" x1="6298.32" y1="4686.04" x2="6072.36" y2="2676.5">
  </linearGradient>
  <linearGradient id="id10" gradientUnits="userSpaceOnUse" xlink:href="#id0" x1="5843.37" y1="4204.25" x2="5870.31" y2="2145.11">
  </linearGradient>
  <linearGradient id="id11" gradientUnits="userSpaceOnUse" xlink:href="#id0" x1="5476.12" y1="4499.92" x2="5731.21" y2="2422.27">
  </linearGradient>
  <linearGradient id="id12" gradientUnits="userSpaceOnUse" xlink:href="#id0" x1="5089.25" y1="4383" x2="4850.16" y2="2324.58">
  </linearGradient>
  <linearGradient id="id13" gradientUnits="userSpaceOnUse" xlink:href="#id0" x1="4924" y1="4354.56" x2="5142.92" y2="2293.87">
  </linearGradient>
  <linearGradient id="id14" gradientUnits="userSpaceOnUse" xlink:href="#id0" x1="6469.31" y1="4044.11" x2="6359.8" y2="1953.7">
  </linearGradient>
  <linearGradient id="id15" gradientUnits="userSpaceOnUse" xlink:href="#id0" x1="4498.42" y1="4724.43" x2="4614.67" y2="2675.88">
  </linearGradient>
  <linearGradient id="id16" gradientUnits="userSpaceOnUse" xlink:href="#id0" x1="6285.69" y1="4657.03" x2="6312.7" y2="2605.36">
  </linearGradient>
  <linearGradient id="id17" gradientUnits="userSpaceOnUse" xlink:href="#id0" x1="4721.28" y1="4171.9" x2="4552.67" y2="2091.55">
  </linearGradient>
  <linearGradient id="id18" gradientUnits="userSpaceOnUse" xlink:href="#id0" x1="5316.98" y1="4624.22" x2="5207.49" y2="2533.8">
  </linearGradient>
  <linearGradient id="id19" gradientUnits="userSpaceOnUse" xlink:href="#id0" x1="6332.87" y1="4518" x2="6587.98" y2="2440.33">
  </linearGradient>
  <linearGradient id="id20" gradientUnits="userSpaceOnUse" xlink:href="#id0" x1="3995.16" y1="4244.01" x2="4377.33" y2="2207.28">
  </linearGradient>
  <linearGradient id="id21" gradientUnits="userSpaceOnUse" xlink:href="#id0" x1="4026.77" y1="4196.06" x2="4143.58" y2="2140.05">
  </linearGradient>
  <linearGradient id="id22" gradientUnits="userSpaceOnUse" xlink:href="#id0" x1="6793.07" y1="4162.83" x2="6820.02" y2="2103.71">
  </linearGradient>
  <linearGradient id="id23" gradientUnits="userSpaceOnUse" xlink:href="#id0" x1="5720.13" y1="4275.19" x2="6102.31" y2="2238.47">
  </linearGradient>
  <linearGradient id="id24" gradientUnits="userSpaceOnUse" xlink:href="#id0" x1="4004.09" y1="4177.19" x2="3912.21" y2="2115.22">
  </linearGradient>
  <linearGradient id="id25" gradientUnits="userSpaceOnUse" xlink:href="#id0" x1="5742.2" y1="4207.74" x2="5636.83" y2="2147.03">
  </linearGradient>
  <linearGradient id="id26" gradientUnits="userSpaceOnUse" xlink:href="#id0" x1="4359.92" y1="4129.49" x2="4133.93" y2="2119.96">
  </linearGradient>
  <linearGradient id="id27" gradientUnits="userSpaceOnUse" xlink:href="#id0" x1="6821.25" y1="4212.89" x2="6582.15" y2="2154.48">
  </linearGradient>
  <linearGradient id="id28" gradientUnits="userSpaceOnUse" xlink:href="#id0" x1="4347.28" y1="4100.48" x2="4374.28" y2="2048.81">
  </linearGradient>
  <linearGradient id="id29" gradientUnits="userSpaceOnUse" xlink:href="#id0" x1="5854.26" y1="4185.45" x2="6103.16" y2="2137.14">
  </linearGradient>
  <linearGradient id="id30" gradientUnits="userSpaceOnUse" xlink:href="#id0" x1="6899.81" y1="4412.55" x2="7016.05" y2="2364.02">
  </linearGradient>
  <linearGradient id="id31" gradientUnits="userSpaceOnUse" xlink:href="#id0" x1="6092.87" y1="4349.68" x2="6406.25" y2="2286.15">
  </linearGradient>
  <linearGradient id="id32" gradientUnits="userSpaceOnUse" xlink:href="#id0" x1="4970.76" y1="4024.76" x2="4865.42" y2="1964.05">
  </linearGradient>
  <linearGradient id="id33" gradientUnits="userSpaceOnUse" xlink:href="#id0" x1="5327.15" y1="4212.41" x2="5443.95" y2="2156.39">
  </linearGradient>
  <linearGradient id="id34" gradientUnits="userSpaceOnUse" xlink:href="#id0" x1="6814.52" y1="4145.53" x2="7051.26" y2="2094.27">
  </linearGradient>
  <linearGradient id="id35" gradientUnits="userSpaceOnUse" xlink:href="#id0" x1="6465.37" y1="4073.2" x2="6831.04" y2="2084.33">
  </linearGradient>
  <linearGradient id="id36" gradientUnits="userSpaceOnUse" xlink:href="#id0" x1="4199.63" y1="4314.17" x2="3973.66" y2="2304.61">
  </linearGradient>
  <linearGradient id="id37" gradientUnits="userSpaceOnUse" xlink:href="#id0" x1="4980.31" y1="4044.25" x2="5097.14" y2="1988.26">
  </linearGradient>
 </defs>
 <g id="Capa_x0020_1">
  <metadata id="CorelCorpID_0Corel-Layer"/>
  <path class="fil0" d="M6838.85 1574.56c17.5,737.44 -3.88,1364.3 -10.15,1927.53 -12.22,15.84 -24.68,31.46 -37.44,46.87l-0.48 0.55c-17.18,20.72 -34.87,41.1 -53.04,61l-2.31 2.47c-13.28,14.52 -26.78,28.81 -40.56,42.85 -4.24,-772.7 -12.14,-1527.59 143.98,-2081.26z"/>
  <path class="fil1" d="M4161.73 1610.88c-63.21,673.4 -87.3,1256.4 -116.34,1782.07 35.41,54.19 73.82,106.29 115.02,156l0.51 0.55 9.49 11.35c54.37,-722.45 101.49,-1420.01 -8.68,-1949.97z"/>
  <path class="fil2" d="M5462.1 1627.25c-94.75,1009.59 -101.62,1815.9 -169.04,2530.65l8.61 0.99 -8.61 -0.97 8.61 0.97c14.19,1.43 28.48,2.69 42.77,3.77l0.34 0.02c14.31,1.12 28.72,1.99 43.19,2.76l0.19 0.02c13.24,0.63 26.52,1.15 39.81,1.53 60.11,-922.02 174.15,-1866.24 34.13,-2539.73z"/>
  <path class="fil3" d="M5531.43 1759.5c22.65,953.55 -19.72,1722.3 -10.38,2407.54l-1.14 0.05 -0.07 0c-14.63,0.34 -29.29,0.56 -44,0.56 -14.7,0 -29.33,-0.22 -44,-0.56l-0.07 0c-14.43,-0.36 -28.85,-0.95 -43.21,-1.62 0.07,-882.37 -35.05,-1774.91 142.87,-2405.97z"/>
  <path class="fil4" d="M5115.29 1459.08c-98.85,1052.75 -102.04,1884.51 -178.03,2621.83l11.98 3.84c6.49,2.11 12.97,4.28 19.51,6.32 5.99,1.87 12.07,3.6 18.08,5.39 7.33,2.2 14.67,4.49 22.06,6.51 6.5,1.86 13.03,3.54 19.47,5.27 7.12,1.95 14.2,3.96 21.29,5.76 4.51,1.18 9.06,2.17 13.57,3.32l10.36 2.57c57.2,-959.85 187.88,-1957.82 41.71,-2660.82z"/>
  <path class="fil5" d="M5889.12 1615.96c23.75,998.28 -23.83,1794.01 -8.69,2503.39 -6.57,1.64 -13.15,3.23 -19.77,4.74l-0.07 0.02c-13.46,3.12 -27.03,6.08 -40.61,8.86l-0.14 0c-8.95,1.82 -18.01,3.5 -27.03,5.18 -5.01,0.92 -10.03,1.96 -15.08,2.89 -5.93,1.04 -11.88,1.96 -17.82,2.96l-13.94 2.33c4.13,-922.24 -43.14,-1869.59 143.13,-2530.37z"/>
  <path class="fil6" d="M6591.41 2081.55c-103.81,723.25 -227.84,1339.54 -327.33,1893.64l-12.21 6.35c-2.73,1.34 -5.48,2.69 -8.21,4.08 -9.53,4.78 -19.03,9.59 -28.67,14.17 -3.7,1.81 -7.45,3.5 -11.17,5.25 -8.78,4.12 -17.52,8.28 -26.37,12.25 -3.84,1.74 -7.71,3.34 -11.57,5.07 -8.76,3.88 -17.5,7.77 -26.3,11.49 -4.86,2.04 -9.8,3.99 -14.64,5.99l-7.72 3.17c118.36,-730.32 236.57,-1436.81 474.2,-1961.45z"/>
  <path class="fil7" d="M4373.17 2133.89c48.42,664.35 119.74,1241.12 177.9,1761.9l5.82 3.77c2.76,1.73 5.56,3.45 8.32,5.18 8.9,5.64 17.81,11.19 26.78,16.69l5.61 3.28c9.83,5.92 19.7,11.75 29.64,17.48 2.64,1.5 5.29,2.94 7.94,4.42 9.38,5.36 18.79,10.64 28.27,15.79l4.46 2.33c9.34,5.04 18.72,9.99 28.18,14.89 -63.45,-685.2 -135.61,-1341.05 -322.93,-1845.74z"/>
  <path class="fil8" d="M6774.57 1822.04c41.6,570.65 100.07,1076.72 152.6,1538.18 44.15,-71.03 83.22,-145.52 116.72,-223 -55.58,-488.07 -131.1,-942.79 -269.31,-1315.18z"/>
  <path class="fil9" d="M6354.76 1454.61c65.74,902.04 173.76,1642.77 233.58,2300.91l0.57 -0.51 2.4 -2c9.49,-8.19 18.8,-16.47 28.1,-24.86l2.56 -2.24c9.76,-8.86 19.37,-17.82 28.95,-26.86l0.9 -0.85c9.11,-8.65 18.08,-17.39 27.03,-26.27l2.36 -2.33c9.34,-9.29 18.57,-18.71 27.68,-28.21 -73.92,-805.63 -135.89,-1598.78 -354.13,-2186.76z"/>
  <path class="fil10" d="M4653.01 1525c-120.39,838.58 -267.85,1533.37 -372.85,2154.12l-7.28 -7.21 -2.4 -2.33c-18.55,-18.46 -36.59,-37.29 -54.2,-56.6l-2.31 -2.47c-15.93,-17.43 -31.47,-35.22 -46.62,-53.27 122.36,-755.33 240.4,-1490.64 485.66,-2032.23z"/>
  <path class="fil11" d="M7161.4 1574.65c-142.72,727.04 -228.16,1349.89 -317.73,1907.74 76.28,-101.91 141.48,-212.65 193.71,-330.36 192.73,-315.42 171,-1134.18 124.01,-1577.38z"/>
  <path class="fil12" d="M3839.94 1588.45c81.96,657.56 124.01,1228.77 168.08,1744.69 -76.53,-128.39 -164.31,-382.39 -205.24,-529.67 -77.2,-498.94 -29.41,-839.51 37.16,-1215.02z"/>
  <path class="fil13" d="M5564.9 1619.64c124.97,1002.41 157.17,1804.21 245.06,2515.28l-17.14 3.23c-5.01,0.92 -10.03,1.96 -15.08,2.89 -5.93,1.04 -11.88,1.96 -17.82,2.96 -8.16,1.36 -16.28,2.77 -24.5,4.02l-0.15 0.05c-13.91,2.13 -27.9,4.07 -41.94,5.88l-0.05 0 -16.29 1.82c-88.62,-921.17 -231.17,-1864.34 -112.09,-2536.12z"/>
  <path class="fil14" d="M5429.41 1744.75c-182.98,932.01 -271.76,1692.79 -395.85,2364.91 5.36,1.48 10.73,2.98 16.09,4.35 4.51,1.18 9.06,2.17 13.57,3.32 9.25,2.29 18.47,4.58 27.77,6.75l0.11 0.02c13.44,3.14 27,6.04 40.55,8.86l0.17 0c8.94,1.82 18,3.5 26.98,5.18l3.52 0.67c149.79,-871.15 335.64,-1747.33 267.09,-2394.07z"/>
  <path class="fil15" d="M4793.49 1436.66c134.68,1080.54 161.64,1927.97 266.7,2679.91 -3.52,-0.85 -7.05,-1.64 -10.54,-2.56 -7.09,-1.8 -14.18,-3.81 -21.29,-5.76 -6.44,-1.73 -12.97,-3.42 -19.47,-5.27 -7.39,-2.03 -14.72,-4.32 -22.06,-6.51 -6.01,-1.79 -12.09,-3.52 -18.08,-5.39 -6.54,-2.04 -13.02,-4.21 -19.51,-6.32 -6.89,-2.22 -13.78,-4.34 -20.6,-6.7l-13.57 -4.73c-87.34,-952.65 -244.99,-1940.43 -121.58,-2636.67z"/>
  <path class="fil16" d="M6211.74 1616.05c-197.55,1006.09 -285.31,1812.62 -426.21,2523.51l7.3 -1.41c9.02,-1.69 18.08,-3.36 27.03,-5.18l0.14 0c13.57,-2.78 27.15,-5.74 40.61,-8.86l0.07 -0.02c9.31,-2.1 18.54,-4.46 27.78,-6.75 4.53,-1.15 9.06,-2.16 13.6,-3.32 7.11,-1.8 14.18,-3.81 21.27,-5.76l4.82 -1.29c152.13,-902.74 354.68,-1820.18 283.6,-2490.91z"/>
  <path class="fil17" d="M6952.31 1942.95c-285.97,780.7 -484.39,1440.58 -681.43,2028.66l12.9 -6.87 4.44 -2.33c9.47,-5.16 18.89,-10.43 28.3,-15.79 2.64,-1.48 5.29,-2.92 7.93,-4.42 9.93,-5.73 19.8,-11.56 29.63,-17.48l5.59 -3.28c9,-5.48 17.92,-11.06 26.79,-16.69 2.8,-1.73 5.6,-3.45 8.32,-5.18 8.9,-5.68 17.65,-11.49 26.43,-17.37 2.54,-1.71 5.2,-3.35 7.79,-5.14l12.97 -8.87c246.29,-709.68 478.31,-1395.01 510.34,-1925.24z"/>
  <path class="fil18" d="M6521.61 1935.32c-314.94,859.82 -523.69,1573.03 -741.38,2205.26l12.59 -2.43c9.02,-1.69 18.08,-3.36 27.03,-5.18l0.14 0c13.57,-2.78 27.15,-5.74 40.61,-8.86l0.07 -0.02c9.31,-2.1 18.54,-4.46 27.78,-6.75 4.53,-1.15 9.06,-2.16 13.6,-3.32 7.11,-1.8 14.18,-3.81 21.27,-5.76l2.17 -0.59c275.68,-796.13 560.36,-1580.74 596.12,-2172.34z"/>
  <path class="fil19" d="M4453.03 1992.9c235.45,814.97 388.78,1498.06 547.65,2107.72l-13.86 -4.16c-6.01,-1.79 -12.09,-3.52 -18.08,-5.39 -6.54,-2.04 -13.02,-4.21 -19.51,-6.32 -6.89,-2.22 -13.78,-4.34 -20.6,-6.7 -8.14,-2.76 -16.21,-5.67 -24.3,-8.54 -4.88,-1.71 -9.76,-3.35 -14.62,-5.12 -8.48,-3.11 -16.94,-6.37 -25.36,-9.6l-8.9 -3.38c-206.22,-761.37 -407.72,-1502.38 -402.42,-2058.51z"/>
  <path class="fil20" d="M6095.56 1924.89c-320.3,874.55 -530.81,1597.41 -752.57,2237.65l1.46 0.11 0.34 0.02c14.31,1.12 28.72,1.99 43.19,2.76l0.19 0.02c14.5,0.69 29.04,1.28 43.6,1.64l0.07 0c14.43,0.34 28.79,0.56 43.26,0.56 283.03,-820.18 583.67,-1633.78 620.46,-2242.76z"/>
  <path class="fil21" d="M4878.76 2012.21c241.54,836.13 396.69,1533.45 560.05,2155.04l-6.98 -0.16 -0.07 0c-14.56,-0.36 -29.1,-0.95 -43.6,-1.64l-0.19 -0.02c-14.47,-0.76 -28.88,-1.64 -43.19,-2.76l-0.34 -0.02c-13.11,-0.99 -26.25,-2.13 -39.28,-3.42 -214.23,-792.24 -431.87,-1569.37 -426.39,-2147.02z"/>
  <path class="fil22" d="M4362.05 1568.73c205.36,981.19 322.28,1771.28 466.01,2471.66l-1.32 -0.56c-4.87,-2 -9.76,-3.95 -14.61,-5.99 -8.81,-3.72 -17.57,-7.61 -26.34,-11.49 -3.86,-1.73 -7.74,-3.32 -11.56,-5.07 -8.86,-3.97 -17.62,-8.13 -26.38,-12.25 -3.72,-1.75 -7.47,-3.44 -11.17,-5.25 -6.13,-2.92 -12.23,-5.93 -18.31,-8.96 -169.18,-884.34 -366.53,-1776.58 -356.32,-2422.1z"/>
  <path class="fil23" d="M6632.9 1777.91c-255.44,901.33 -422.21,1641.59 -599.87,2296.7l14.29 -5.09c4.85,-1.71 9.76,-3.35 14.63,-5.12 8.48,-3.11 16.93,-6.37 25.37,-9.6 4.62,-1.78 9.25,-3.47 13.85,-5.27 7.95,-3.14 15.84,-6.46 23.76,-9.69 4.84,-2 9.78,-3.95 14.64,-5.99l5.5 -2.36c220.51,-824.42 454.79,-1642.94 487.83,-2253.58z"/>
  <path class="fil24" d="M6031.09 1432.11c259.09,896.84 418.79,1633.99 595.8,2289.3l-4.92 4.49 -2.56 2.24c-9.3,8.39 -18.62,16.67 -28.1,24.86l-2.4 2c-9.5,8.21 -19.14,16.33 -28.83,24.36l-2.84 2.27c-9.58,7.83 -19.27,15.6 -29,23.25l-4.42 3.43 -3.93 3.03c-232.04,-870.88 -494.83,-1745.18 -488.79,-2379.22z"/>
  <path class="fil25" d="M4977.46 1525.15c-303.19,827.79 -507.95,1519.72 -717.08,2134.29l10.09 10.13 2.4 2.33c8.89,8.88 17.87,17.64 27,26.27l0.9 0.85c9.58,9.04 19.2,18 28.93,26.86l2.56 2.24c9.29,8.39 18.62,16.67 28.11,24.86l1.39 1.15c281.63,-815.5 579.11,-1623.4 615.69,-2229z"/>
  <path class="fil26" d="M6420.98 1636.94c164.76,726.01 269.27,1348.03 375.78,1905.31l-5.5 6.71 -0.48 0.55c-17.18,20.72 -34.87,41.1 -53.04,61l-2.31 2.47c-16.12,17.62 -32.56,34.89 -49.42,51.79 -155.51,-746.53 -306.76,-1472.44 -265.03,-2027.82z"/>
  <path class="fil27" d="M4574.21 1702.27c-200.61,665.01 -342.63,1243.38 -478.63,1763.38 20.76,28.43 42.38,56.23 64.83,83.31l0.51 0.55c12.7,15.34 25.69,30.46 38.93,45.34 195.65,-694.25 377.11,-1363.96 374.36,-1892.57z"/>
  <path class="fil28" d="M6299.18 1733.44c-290.07,961.53 -457.58,1741.97 -661.65,2426.65l12.48 -1.21c6.91,-0.74 13.76,-1.59 20.6,-2.4 7.58,-0.85 15.17,-1.62 22.68,-2.54l0.05 0c14.04,-1.81 28.02,-3.75 41.94,-5.88l0.15 -0.05c8.22,-1.25 16.34,-2.66 24.5,-4.02 5.94,-1 11.89,-1.92 17.82,-2.96l2.8 -0.54c239.6,-871.13 522.03,-1748.53 518.63,-2407.07zm-628.57 2423.04c-6.84,0.81 -13.69,1.66 -20.6,2.4l20.6 -2.4z"/>
  <path class="fil29" d="M4688.98 1807.03c207.8,915.62 319.77,1665.87 460.74,2329.41l-17.89 -3.47 -0.17 0c-13.55,-2.82 -27.11,-5.72 -40.55,-8.86l-0.11 -0.02c-9.3,-2.17 -18.53,-4.46 -27.77,-6.75 -4.51,-1.15 -9.06,-2.14 -13.57,-3.32 -7.09,-1.8 -14.18,-3.81 -21.29,-5.76 -6.19,-1.66 -12.43,-3.28 -18.71,-5.06 -172.18,-838.93 -367.41,-1674.36 -320.67,-2296.16z"/>
  <path class="fil30" d="M5298.99 1774.81c-193.7,894.16 -298.01,1630.4 -427.62,2282.66l18.36 6.92c4.86,1.78 9.74,3.42 14.62,5.12 8.08,2.87 16.16,5.78 24.3,8.54 6.82,2.36 13.71,4.48 20.6,6.7 6.49,2.11 12.97,4.28 19.51,6.32 5.99,1.87 12.07,3.6 18.08,5.39l9.16 2.74c165.11,-849.04 356.39,-1696.92 303.01,-2324.4z"/>
  <path class="fil31" d="M5574.98 1935.52c189.34,834.25 299.12,1531.25 423.76,2150.44l-15.82 5.11c-5.99,1.87 -12.07,3.6 -18.08,5.39 -7.34,2.17 -14.65,4.49 -22.03,6.51 -6.49,1.86 -13.02,3.54 -19.49,5.27 -7.09,1.95 -14.17,3.96 -21.27,5.76 -4.53,1.16 -9.06,2.17 -13.6,3.32l-15.6 3.86c-166.06,-801.39 -342.56,-1591.21 -297.87,-2185.67z"/>
  <path class="fil32" d="M6160.73 2143.47c43.65,704.29 46.12,1310.15 59.46,1853.82l-5.2 2.49c-3.7,1.81 -7.45,3.5 -11.17,5.25 -8.78,4.12 -17.52,8.28 -26.37,12.25 -3.84,1.74 -7.71,3.34 -11.57,5.07 -8.76,3.88 -17.5,7.77 -26.3,11.49 -4.86,2.04 -9.8,3.99 -14.64,5.99 -7.93,3.23 -15.82,6.55 -23.76,9.69 -4.6,1.8 -9.22,3.5 -13.85,5.27l-2.36 0.9c-30.11,-705.4 -52.49,-1385.85 75.77,-1912.23z"/>
  <path class="fil33" d="M4548.96 2064.9c-84.47,637.47 -129.14,1195.78 -175.14,1699.54l17.8 14.92 2.85 2.27c9.55,7.88 19.21,15.6 28.99,23.25l4.4 3.43c9.29,7.14 18.57,14.34 27.98,21.34l6.01 4.37c9.09,6.75 18.15,13.38 27.35,19.9l3.47 2.4 11.2 7.83c73.57,-660.86 131.38,-1294.1 45.09,-1799.26z"/>
  <path class="fil34" d="M4062.06 1771.6c40.23,649.05 45.48,1214.52 56.48,1724.73 -55.26,-72.25 -104.87,-149.03 -148.18,-229.73 -17.11,-552.96 -11.06,-1073.41 91.7,-1495z"/>
  <path class="fil35" d="M5744.83 2111.88c-104.83,791.14 -148.35,1460.35 -209.29,2054.72l27.98 -1.15 0.18 -0.02c14.47,-0.76 28.85,-1.64 43.21,-2.76l0.33 -0.02c14.28,-1.06 28.57,-2.36 42.77,-3.77 6.91,-0.74 13.76,-1.59 20.6,-2.4l1.46 -0.16c84.83,-748.13 169.66,-1477.06 72.76,-2044.44zm-74.22 2044.6c-6.84,0.81 -13.69,1.66 -20.6,2.4l20.6 -2.4z"/>
  <path class="fil36" d="M6780.05 1546.44c-115.87,874.59 -156.8,1600.2 -229.22,2240.4l6.41 -5.22 2.84 -2.27c9.69,-8.03 19.33,-16.15 28.83,-24.36l2.4 -2c9.49,-8.19 18.8,-16.47 28.1,-24.86l2.56 -2.24c9.76,-8.86 19.37,-17.82 28.95,-26.86l0.9 -0.85c9.11,-8.65 18.08,-17.39 27.03,-26.27l2.36 -2.33c6.52,-6.5 12.99,-13.04 19.43,-19.65 86.9,-768.73 178.89,-1521.22 79.41,-2103.48z"/>
  <path class="fil37" d="M4222.33 1586.95c50.35,812.77 45.9,1494.43 66.59,2100.76 -5.39,-5.2 -10.73,-10.5 -16.04,-15.79l-2.4 -2.33c-18.55,-18.46 -36.59,-37.29 -54.2,-56.6l-2.31 -2.47c-18.2,-19.9 -35.86,-40.25 -53.04,-61l-0.51 -0.55 -12.39 -15.12c-30.8,-717.77 -56.05,-1411.91 74.31,-1946.89z"/>
  <path class="fil38" d="M5549.65 1.02c-47.6,-1.38 -94.77,-1.29 -142.36,-0.07l4.03 138.4c44.96,-1.15 89.55,-1.25 134.49,0.07l3.84 -138.4 -142.36 -0.07 -18.46 0.63 5.69 138.34 16.8 -0.57 138.33 -138.33zm-302.95 10.01c-46.57,4.41 -95.52,10.04 -141.58,18l22.26 136.64c43.25,-7.47 89.3,-12.74 133.02,-16.86l-13.7 -137.78zm-281.45 44.37c-46.17,9.76 -93.11,21.99 -138.52,34.95l38.5 133.01c42.3,-12.32 86.83,-23.64 129.94,-32.76l-29.91 -135.2zm-274.44 78.18c-45.35,15.98 -88.61,33.47 -133.14,51.43l54.51 127.28c39.46,-17.8 84.19,-33.9 125.14,-48.33l-46.52 -130.39zm-262.43 110.68c-42.7,21.21 -84.41,43.51 -125.83,67.13l68.81 120.11c39.08,-22.17 78.11,-43.11 118.33,-63.12l-61.32 -124.12zm-247.4 141.74c-39.25,24.47 -79.58,54.2 -116.84,81.83l82.9 110.89c35.06,-26.03 72.98,-53.93 109.95,-76.96l-76.01 -115.75zm-228.74 170.74c-36.09,30.59 -72.11,62.35 -106.13,95.19l96.09 99.7c32.42,-30.95 65.77,-60.67 99.97,-89.65l-89.93 -105.25zm-206.33 196.62c-32.18,34.65 -64.12,70.54 -93.94,107.22l107.25 87.52c28.5,-34.54 58.05,-68.14 88.53,-100.97l-101.84 -93.77zm-181.27 219.85c-28,38.54 -54.67,77.69 -80.46,117.74l116.95 74.11c24.22,-37.74 49.44,-74.48 75.78,-110.79l-112.27 -81.05zm-153.68 240.13c-23.04,41.56 -45.14,83.64 -65.66,126.51l124.95 59.58c19.87,-40.47 40.06,-79.75 61.93,-119.2l-121.22 -66.89zm-123.6 256.9c-17.92,44.01 -34.8,88.62 -49.97,133.67l131.36 43.76c14.94,-42.48 29.97,-83.91 46.98,-125.65l-128.38 -51.78zm-91.57 269.7c-12.89,45.33 -23.62,92.63 -33.39,138.78l135.61 28.02c9.08,-43.34 19.28,-87.79 31.36,-130.36l-133.58 -36.45zm-58.27 279.38c-6.87,47.76 -10.98,94.17 -16.37,141.86l138.04 10.77c4,-44.68 9.03,-88.7 15.41,-133.14l-137.08 -19.49zm4692.03 128.25c-4.22,-47.05 -9.75,-95.15 -17.17,-141.8l-136.78 21.49c6.9,43.84 12.15,88.87 16.09,133.08l137.86 -12.76zm-42.77 -281.78c-9.86,-46.45 -21.27,-92.93 -34.12,-138.62l-133.26 37.51c11.99,42.97 22.8,86.54 32.04,130.21l135.33 -29.09zm-76.57 -274.89c-15.66,-45.06 -32.46,-89.31 -50.67,-133.37l-127.64 53.69c17.42,40.84 33.04,83.47 47.62,125.43l130.69 -45.74zm-109.36 -263.44c-20.96,-42.72 -42.84,-84.43 -66.24,-125.89l-120.51 68.16c22.11,39.27 42.78,78.67 62.66,119.12l124.08 -61.39zm-140.12 -247.81c-24.65,-38.03 -53.37,-82.46 -81.4,-117.66l-110.89 82.9 -0.23 -0.32c26.51,36.18 51.75,72.59 76.22,110.19l116.29 -75.11zm-169.44 -229.78c-30.79,-36.72 -62.02,-71.46 -94.55,-106.62l-100.32 95.45c30.69,31.27 60.89,66.86 89.1,100.51l105.76 -89.34zm-195.38 -207.42c-34.8,-32.61 -70.14,-63.82 -106.65,-94.51l-88.32 106.62c34.45,28.87 67.72,58.41 100.52,89.15l94.44 -101.25zm-218.86 -182.54c-38.33,-28.11 -77.35,-55.32 -117.26,-81.11l-74.85 116.48c37.65,24.47 74.23,49.89 110.43,76.43l81.68 -111.8zm-239.19 -155.01c-41.46,-23.48 -83.43,-45.39 -126.18,-66.44l-60.31 124.64c40.22,19.74 79.74,40.48 118.74,62.56l67.74 -120.76zm-256.17 -125.12c-44.16,-18.3 -88.29,-34.83 -133.36,-50.72l-44.72 131.05c42.28,14.47 84.14,30.63 125.42,47.73l52.66 -128.07zm-269.61 -93.26c-45.91,-12.66 -91.64,-23.96 -138.2,-34.07l-28.85 135.41c43.99,9.5 87.21,20.26 130.61,32.24l36.45 -133.58zm-278.61 -59.76c-47.08,-7.16 -94.31,-12.8 -141.72,-17.18l-11.72 137.96c44.61,4.27 88.77,9.41 133.1,16.15l20.34 -136.93z"/>
  <path class="fil39" d="M5475.35 4898.68c1381.19,0 2501.28,-1117.41 2505.81,-2497.52l-460.81 0c-2.03,492.43 -177.99,943.8 -469.7,1295.81l-0.56 0.67c-20.6,24.82 -41.77,49.18 -63.5,73l-2.8 3.01c-21.12,23.08 -42.75,45.68 -64.89,67.76l-2.9 2.82c-10.67,10.6 -21.44,21.09 -32.34,31.45l-1.07 0.99c-11.43,10.85 -22.98,21.59 -34.67,32.18l-3.04 2.7c-11.13,10.03 -22.33,19.96 -33.66,29.77l-2.86 2.41c-11.42,9.83 -22.94,19.56 -34.57,29.14l-3.39 2.72c-11.47,9.41 -23.04,18.71 -34.72,27.88l-5.28 4.05c-11.08,8.63 -22.23,17.21 -33.49,25.61 -2.39,1.78 -4.84,3.48 -7.23,5.25 -10.84,8.02 -21.71,15.99 -32.73,23.8l-4.17 2.88c-11.89,8.38 -23.86,16.69 -35.93,24.83 -3.11,2.1 -6.26,4.1 -9.37,6.16 -10.49,7 -21,13.97 -31.61,20.76 -3.31,2.12 -6.67,4.14 -9.99,6.24 -10.65,6.72 -21.3,13.43 -32.09,19.95l-6.68 3.96c-11.77,7.07 -23.57,14.09 -35.5,20.92 -3.14,1.81 -6.35,3.53 -9.52,5.33 -11.23,6.38 -22.49,12.73 -33.85,18.88l-5.32 2.8c-12.66,6.81 -25.38,13.55 -38.21,20.11 -3.26,1.66 -6.57,3.23 -9.84,4.88 -11.39,5.75 -22.8,11.47 -34.31,17 -4.43,2.13 -8.93,4.14 -13.38,6.25 -10.5,4.95 -20.99,9.93 -31.59,14.7 -4.59,2.07 -9.25,4.02 -13.85,6.06 -10.49,4.65 -20.96,9.3 -31.54,13.77 -5.8,2.45 -11.67,4.76 -17.5,7.16 -9.47,3.89 -18.94,7.85 -28.5,11.61 -5.49,2.15 -11.03,4.18 -16.55,6.29 -10.11,3.88 -20.21,7.79 -30.4,11.51 -5.8,2.12 -11.66,4.09 -17.48,6.16 -9.69,3.44 -19.35,6.93 -29.12,10.23 -8.18,2.77 -16.41,5.35 -24.63,8.02 -7.79,2.52 -15.55,5.12 -23.39,7.56 -7.19,2.23 -14.44,4.28 -21.65,6.44 -8.81,2.62 -17.58,5.34 -26.45,7.85 -7.72,2.2 -15.53,4.2 -23.3,6.3 -8.49,2.3 -16.96,4.69 -25.5,6.89 -5.4,1.38 -10.84,2.63 -16.25,3.96 -11.08,2.74 -22.14,5.55 -33.28,8.11l-0.11 0.02c-16.11,3.71 -32.3,7.24 -48.59,10.57l-0.15 0.03c-10.74,2.2 -21.57,4.17 -32.36,6.19 -6.05,1.13 -12.05,2.38 -18.11,3.45 -7.08,1.26 -14.23,2.36 -21.34,3.54 -9.76,1.64 -19.49,3.36 -29.3,4.85l-0.22 0.03c-16.68,2.55 -33.41,4.88 -50.22,7.01l-0.05 0c-9.03,1.14 -18.13,2.07 -27.19,3.11 -8.21,0.93 -16.4,1.97 -24.65,2.81 -17.01,1.72 -34.1,3.23 -51.24,4.54l-0.39 0.03c-17.18,1.3 -34.41,2.4 -51.72,3.27l-0.25 0.01c-17.34,0.88 -34.75,1.54 -52.2,1.98l-0.14 0c-17.49,0.44 -35.05,0.67 -52.65,0.67 -17.6,0 -35.16,-0.23 -52.65,-0.67l-0.14 0c-17.44,-0.44 -34.87,-1.1 -52.2,-1.98l-0.26 -0.01c-17.29,-0.88 -34.54,-1.96 -51.72,-3.27l-0.39 -0.03c-17.14,-1.33 -34.24,-2.78 -51.24,-4.54 -8.24,-0.84 -16.43,-1.87 -24.65,-2.81 -9.06,-1.04 -18.16,-1.97 -27.19,-3.11l-0.05 0c-16.8,-2.15 -33.56,-4.45 -50.22,-7.01l-0.2 -0.03c-9.82,-1.53 -19.54,-3.21 -29.31,-4.85 -7.11,-1.18 -14.25,-2.28 -21.33,-3.54 -6.06,-1.07 -12.07,-2.31 -18.11,-3.45 -10.81,-2.03 -21.62,-4 -32.37,-6.19l-0.15 -0.03c-16.26,-3.34 -32.48,-6.82 -48.59,-10.57l-0.11 -0.02c-11.11,-2.61 -22.19,-5.36 -33.27,-8.11 -5.42,-1.34 -10.86,-2.57 -16.25,-3.96 -8.54,-2.2 -17,-4.58 -25.5,-6.89 -7.78,-2.1 -15.57,-4.1 -23.31,-6.3 -8.86,-2.51 -17.64,-5.22 -26.44,-7.85 -7.21,-2.15 -14.46,-4.21 -21.65,-6.44 -7.85,-2.43 -15.59,-5.04 -23.4,-7.56 -8.21,-2.66 -16.47,-5.25 -24.63,-8.02 -9.75,-3.29 -19.43,-6.79 -29.12,-10.23 -5.82,-2.07 -11.67,-4.03 -17.48,-6.16 -10.18,-3.72 -20.28,-7.63 -30.39,-11.51 -5.51,-2.12 -11.06,-4.13 -16.55,-6.29 -9.55,-3.76 -19.02,-7.71 -28.51,-11.61 -5.82,-2.4 -11.69,-4.71 -17.5,-7.16 -10.58,-4.46 -21.05,-9.12 -31.54,-13.77 -4.61,-2.04 -9.25,-4 -13.84,-6.06 -10.6,-4.78 -21.09,-9.75 -31.59,-14.7 -4.46,-2.1 -8.96,-4.12 -13.39,-6.25 -11.51,-5.52 -22.91,-11.25 -34.3,-17 -3.27,-1.65 -6.59,-3.23 -9.85,-4.88 -12.83,-6.55 -25.54,-13.3 -38.21,-20.11l-5.31 -2.8c-11.38,-6.16 -22.63,-12.51 -33.86,-18.88 -3.15,-1.8 -6.37,-3.52 -9.52,-5.33 -11.92,-6.83 -23.73,-13.85 -35.49,-20.92l-6.7 -3.96c-10.76,-6.54 -21.43,-13.23 -32.08,-19.95 -3.31,-2.1 -6.68,-4.12 -9.99,-6.24 -10.62,-6.79 -21.12,-13.76 -31.61,-20.76 -3.11,-2.06 -6.29,-4.07 -9.37,-6.16 -12.09,-8.13 -24.05,-16.44 -35.94,-24.83l-4.17 -2.88c-11,-7.81 -21.87,-15.78 -32.71,-23.8l-7.23 -5.25c-11.27,-8.4 -22.41,-16.98 -33.49,-25.61l-5.29 -4.05c-11.68,-9.16 -23.24,-18.46 -34.72,-27.88l-3.38 -2.72c-11.64,-9.58 -23.15,-19.32 -34.57,-29.14l-2.87 -2.41c-11.33,-9.8 -22.53,-19.73 -33.65,-29.77l-3.04 -2.7c-11.69,-10.58 -23.24,-21.33 -34.67,-32.18l-1.07 -0.99c-10.91,-10.35 -21.67,-20.86 -32.35,-31.45l-2.89 -2.82c-22.16,-22.09 -43.78,-44.69 -64.91,-67.76l-2.79 -3.01c-21.75,-23.81 -42.92,-48.17 -63.52,-73l-0.56 -0.67c-291.74,-351.99 -467.72,-803.36 -469.7,-1295.81l-460.79 0c4.53,1380.12 1124.63,2497.52 2505.81,2497.52zm233.24 -474.12c-8.21,0.93 -16.4,1.97 -24.65,2.81zm-417.18 0c-8.24,-0.84 -16.43,-1.87 -24.65,-2.81z"/>
  <path class="fil40" d="M586.93 9134.87l-83.28 -484.47 -33.11 0 -177.4 399.81 -176.37 -399.81 -32.42 0 -84.32 484.47 35.53 0 73.48 -420.34 179.14 401.42 10.95 0 179.49 -401.99 72.79 420.91 35.53 0zm444.57 0l37.84 0 -208.78 -484.47 -31.38 0 -203.24 484.47 37.14 0 55.83 -132.3 255.97 0 56.63 132.3zm-186.05 -435.45l115.8 270.84 -228.97 0 113.16 -270.84zm639.4 -49.02l0 420.91 -307.18 -420.91 -31.26 0 0 484.47 33.91 0 0 -422.99 309.03 422.99 29.41 0 0 -484.47 -33.91 0zm201.53 450.67l0 -201.51 212.13 0 0 -32.53 -212.13 0 0 -183.41 230.12 0 0 -33.22 -264.72 0 0 484.35 272.34 0 0 -33.68 -237.74 0zm440.31 41.41c90.43,0 159.87,-69.79 159.87,-164.5l0 -327.59 -34.6 0 0 326.33c0,74.97 -54.68,131.84 -125.27,131.84 -71.98,0 -126.66,-56.51 -126.66,-131.84l0 -4.96 -34.6 0 0 6.23c0,94.7 70.48,164.5 161.26,164.5l0 0zm502.36 -0.13c145.92,0 250.89,-106.81 250.89,-249.38 0,-142.92 -104.96,-250.07 -250.89,-250.07 -146.03,0 -251,107.5 -251,250.07 0,142.23 104.98,249.38 251,249.38l0 0zm0 -34.14c-125.15,0 -215.59,-92.97 -215.59,-215.25 0,-122.61 90.43,-215.93 215.59,-215.93 125.15,0 215.47,92.62 215.47,215.93 0,122.97 -90.32,215.25 -215.47,215.25zm5009.71 -457.71l-148.45 0 0 484.24 148.45 0c142.12,0 245.35,-102.08 245.35,-242.46 0,-140.04 -102.89,-241.78 -245.35,-241.78l0 0zm-0.92 451.25l-112.92 0 0 -418.26 112.92 0c122.97,0 210.98,88.02 210.98,208.79 0,121.11 -88.48,209.47 -210.98,209.47zm379.29 -0.69l0 -201.51 212.13 0 0 -32.53 -212.13 0 0 -183.41 230.12 0 0 -33.22 -264.72 0 0 484.35 272.34 0 0 -33.68 -237.74 0zm366.25 0.69l0 -451.37 -34.6 0 0 484.35 263.57 0 0 -32.99 -228.97 0zm-5221.63 33.1l60.68 0 0 -484.47 -60.68 0 0 484.47zm509.92 -484.47l0 373.62 -271.65 -373.62 -55.02 0 0 484.47 59.52 0 0 -378.11 275.45 378.11 51.22 0 0 -484.47 -59.52 0zm484.99 0l-355.5 0 0 56.75 147.41 0 0 427.71 60.67 0 0 -427.71 147.41 0 0 -56.75zm130.77 426.33l0 -162.64 195.63 0 0 -56.06 -195.63 0 0 -150.18 213.62 0 0 -57.45 -274.3 0 0 484.47 281.92 0 0 -58.14 -221.24 0zm372.29 1.39l0 -427.71 -60.68 0 0 484.47 273.62 0 0 -56.75 -212.94 0zm283.24 56.75l60.68 0 0 -484.47 -60.68 0 0 484.47zm378.42 -240.39l0 57.45 193.67 0c-17.54,79.01 -87.2,131.61 -176.26,131.61 -109.12,0 -183.86,-78.21 -183.86,-190.79 0,-111.31 76.83,-190.32 183.86,-190.32 82.02,0 151.34,46.95 172.1,116.95l62.53 0c-21.34,-103.35 -119.28,-176.36 -235.89,-176.36 -140.84,0 -244.42,105.77 -244.42,249.73 0,144.42 103.23,250.19 245.68,250.19 139.92,0 239.35,-102.89 242.36,-248.46l-259.77 0zm406.79 182.25l0 -162.64 195.63 0 0 -56.06 -195.63 0 0 -150.18 213.62 0 0 -57.45 -274.3 0 0 484.47 281.92 0 0 -58.14 -221.24 0zm638.86 -426.33l0 373.62 -271.65 -373.62 -55.02 0 0 484.47 59.52 0 0 -378.11 275.45 378.11 51.22 0 0 -484.47 -59.52 0zm484.99 0l-355.5 0 0 56.75 147.41 0 0 427.71 60.67 0 0 -427.71 147.41 0 0 -56.75zm130.77 426.33l0 -162.64 195.63 0 0 -56.06 -195.63 0 0 -150.18 213.62 0 0 -57.45 -274.3 0 0 484.47 281.92 0 0 -58.14 -221.24 0zm2041.83 -426.33l-173.83 0 0 484.47 60.68 0 0 -174.41 113.15 0c92.17,0 160.91,-66.56 160.91,-155.02 0,-89.17 -69.44,-155.03 -160.91,-155.03zm-3.23 251.23l-109.92 0 0 -192.4 109.92 0c59.53,0 102.09,40.95 102.09,96.21 0,55.25 -42.56,96.2 -102.09,96.2zm546.71 233.24l65.86 0 -203.7 -484.47 -56.75 0 -198.18 484.47 64.6 0 47.29 -116.27 232.9 0 47.98 116.27zm-165.41 -400.84l94.58 229.21 -187.33 0 92.75 -229.21zm426.97 407.07c96.42,0 170.48,-52.14 170.48,-143.73 0,-100.82 -85.36,-121.35 -161.6,-139.81 -62.53,-14.64 -118.12,-28.02 -118.12,-81.2 0,-46.03 44.06,-74.05 102.77,-74.05 59.06,0 103.01,31.37 103.01,85.36l59.99 0c0,-87.9 -61.25,-143.5 -161.72,-143.5 -100.13,0 -164.72,50.98 -164.72,134.73 0,96.66 82.7,116.5 157.46,134.38 63.21,14.65 120.66,28.03 120.66,84.67 0,51.45 -48.11,83.63 -108.89,83.63 -67.14,0 -116.16,-35.75 -116.16,-95.97l-62.06 0c0,95.39 72.2,155.49 178.91,155.49zm554.43 -490.7l-355.5 0 0 56.75 147.41 0 0 427.71 60.67 0 0 -427.71 147.41 0 0 -56.75zm268.14 492.65c146.61,0 253.43,-107.16 253.43,-250.42 0,-143.14 -106.82,-250.42 -253.43,-250.42 -146.72,0 -253.54,107.28 -253.54,250.42 0,143.14 106.82,250.42 253.54,250.42zm0 -59.41c-110.27,0 -191.6,-82.36 -191.6,-190.9 0,-108.65 81.33,-191.13 191.6,-191.13 110.16,0 191.48,81.78 191.48,191.13 0,109.23 -81.33,190.9 -191.48,190.9z"/>
  <path class="fil40" d="M788.06 5945.95l-788.06 0 0 2049.44 442.1 0 0 -641.18 345.97 0c411.83,0 722.67,-300.09 722.67,-704.12 0,-404.52 -311.32,-704.13 -722.67,-704.13l0 0zm-19.52 998.37l-326.45 0 0 -588.49 326.45 0c176.63,0 294.24,123.95 294.24,294.25 0,170.29 -117.6,294.24 -294.24,294.24zm2152.34 -529.43l-45.87 150.77c-136.63,-124.42 -316.69,-195.67 -519.69,-195.67 -475.76,0 -829.05,355.73 -829.05,832.46 0,478.69 353.29,837.35 829.05,837.35 199.58,0 376.71,-69.29 512.85,-188.36l36.6 144.44 334.74 0 0 -1580.5 -318.64 -0.49zm-530.41 1221.36c-248.37,0 -431.36,-185.42 -431.36,-432.33 0,-249.35 182.99,-434.77 431.36,-434.77 248.37,0 430.38,184.93 430.38,433.31 0,248.37 -182.01,433.8 -430.38,433.8zm1676.58 403.55c399.63,0 663.14,-209.83 663.14,-532.37 0,-385 -329.38,-439.65 -587.02,-486 -164.45,-29.77 -299.12,-54.17 -299.12,-159.56 0,-90.76 78.56,-151.75 211.28,-151.75 149.32,0 237.15,61.97 239.1,187.86l405.5 0c-1.47,-316.2 -252.28,-527.98 -633.86,-527.98 -381.59,0 -635.81,205.92 -635.81,505.04 0,372.8 321.08,440.63 573.84,482.59 166.88,27.82 304,60.51 304,168.83 0,105.89 -106.38,159.56 -224.95,159.56 -153.22,0 -261.06,-70.27 -263.01,-211.28l-416.72 0c1.95,338.65 266.91,565.06 664.12,565.06l-0.49 0z"/>
  <path class="fil38" d="M5683.27 7614.8c-155.66,0 -243.5,-87.84 -243.5,-241.06l0 -616.77 428.92 0 0 -342.55 -437.7 0 0 -412.33 -81.97 0 -622.16 662.65 0 92.23 285.46 0 0 673.87c0,350.84 213.73,564.57 561.16,564.57l304 0 0 -380.61 -194.2 0zm1861.52 -415.26c0,-455.76 -333.27,-829.54 -818.8,-829.54 -468.92,0 -819.78,358.65 -819.78,834.9 0,473.82 353.29,834.91 819.78,834.91 366.94,0 669.97,-219.1 784.65,-564.08l-448.93 0c-65.38,113.21 -186.89,183.47 -335.72,183.47 -207.38,0 -348.89,-118.57 -385.97,-334.25l1196.48 0c5.36,-41.96 8.29,-83.92 8.29,-125.4l0 0zm-818.8 -465.03c191.77,0 330.84,104.92 391.35,298.14l-766.1 0c49.28,-187.37 184.46,-298.14 374.75,-298.14l0 0zm1713.66 1305.3c413.79,0 737.31,-269.36 811.97,-666.56l-430.38 0c-72.22,168.83 -208.85,264.96 -381.59,264.96 -228.85,0 -405.98,-190.8 -405.98,-435.75 0,-244.96 174.2,-430.87 405.98,-430.87 170.3,0 312.79,91.25 382.08,246.42l424.53 0c-77.1,-388.91 -394.76,-648.02 -804.15,-648.02 -480.16,0 -841.74,356.22 -841.74,830.03 0,473.81 363.54,839.78 839.29,839.78l0 0zm1854.2 -1663.47c-188.84,0 -357.67,69.78 -477.23,183.97l0 -715.84 -427.45 0 0 2150.93 427.45 0 0 -831.97c0,-257.16 141.52,-412.33 354.26,-412.33 191.78,0 275.21,117.6 275.21,354.26l0 890.05 427.46 0 0 -961.77c0,-402.57 -222.03,-657.29 -579.71,-657.29l0 0z"/>
 </g>
</svg>
